<svg width="158" height="44" viewBox="0 0 158 44" fill="none" xmlns="http://www.w3.org/2000/svg">
<path d="M72.3618 21.984V21.312C72.3618 18.848 72.8578 16.736 73.8498 14.976C74.8418 13.216 76.1858 11.856 77.8818 10.896C79.5778 9.93599 81.4338 9.45599 83.4498 9.45599C85.9138 9.45599 87.8018 9.93599 89.1138 10.896C90.4578 11.824 91.4498 12.864 92.0898 14.016H92.7618V10.128H96.3618V39.072C96.3618 40.352 96.0098 41.36 95.3058 42.096C94.6018 42.832 93.5778 43.2 92.2338 43.2H76.2978V39.84H91.2258C92.1858 39.84 92.6658 39.36 92.6658 38.4V29.472H91.9938C91.6098 30.176 91.0658 30.864 90.3618 31.536C89.6578 32.208 88.7458 32.768 87.6258 33.216C86.5058 33.632 85.1138 33.84 83.4498 33.84C81.4338 33.84 79.5778 33.36 77.8818 32.4C76.1858 31.44 74.8418 30.08 73.8498 28.32C72.8578 26.528 72.3618 24.416 72.3618 21.984ZM84.4578 30.48C86.8898 30.48 88.8578 29.712 90.3618 28.176C91.8978 26.64 92.6658 24.528 92.6658 21.84V21.456C92.6658 18.736 91.8978 16.624 90.3618 15.12C88.8578 13.584 86.8898 12.816 84.4578 12.816C82.0578 12.816 80.0738 13.584 78.5058 15.12C76.9698 16.624 76.2018 18.736 76.2018 21.456V21.84C76.2018 24.528 76.9698 26.64 78.5058 28.176C80.0738 29.712 82.0578 30.48 84.4578 30.48Z" />
<path d="M58.0594 33.6V13.44H50.8594V10.128H58.0594V4.128C58.0594 2.848 58.4114 1.84 59.1154 1.104C59.8514 0.368 60.8914 0 62.2354 0H68.1394V3.264H63.2914C62.3314 3.264 61.8514 3.744 61.8514 4.704V10.128H69.2434V13.44H61.8514V33.6H58.0594Z" />
<path d="M21.5024 21.984V21.312C21.5024 18.848 21.9984 16.736 22.9904 14.976C23.9824 13.216 25.3264 11.856 27.0224 10.896C28.7184 9.93599 30.5744 9.45599 32.5904 9.45599C35.0544 9.45599 36.9424 9.93599 38.2544 10.896C39.5984 11.824 40.5904 12.864 41.2304 14.016H41.9024V10.128H45.5024V39.072C45.5024 40.352 45.1504 41.36 44.4464 42.096C43.7424 42.832 42.7184 43.2 41.3744 43.2H25.4384V39.84H40.3664C41.3264 39.84 41.8064 39.36 41.8064 38.4V29.472H41.1344C40.7504 30.176 40.2064 30.864 39.5024 31.536C38.7984 32.208 37.8864 32.768 36.7664 33.216C35.6464 33.632 34.2544 33.84 32.5904 33.84C30.5744 33.84 28.7184 33.36 27.0224 32.4C25.3264 31.44 23.9824 30.08 22.9904 28.32C21.9984 26.528 21.5024 24.416 21.5024 21.984ZM33.5984 30.48C36.0304 30.48 37.9984 29.712 39.5024 28.176C41.0384 26.64 41.8064 24.528 41.8064 21.84V21.456C41.8064 18.736 41.0384 16.624 39.5024 15.12C37.9984 13.584 36.0304 12.816 33.5984 12.816C31.1984 12.816 29.2144 13.584 27.6464 15.12C26.1104 16.624 25.3424 18.736 25.3424 21.456V21.84C25.3424 24.528 26.1104 26.64 27.6464 28.176C29.2144 29.712 31.1984 30.48 33.5984 30.48Z" />
<path d="M7.2 33.6V13.44H0V10.128H7.2V4.128C7.2 2.848 7.552 1.84 8.256 1.104C8.992 0.368 10.032 0 11.376 0H17.28V3.264H12.432C11.472 3.264 10.992 3.744 10.992 4.704V10.128H18.384V13.44H10.992V33.6H7.2Z" />
<path d="M129.6 12.0597L113.003 28.6569L110.321 25.9755L126.919 9.3783L129.6 12.0597ZM109.066 29.8787C109.654 30.4671 109.959 31.1572 109.982 31.9492C109.982 32.7185 109.688 33.3973 109.099 33.9856C108.489 34.5966 107.798 34.902 107.029 34.902C106.237 34.8794 105.547 34.5739 104.959 33.9856C104.37 33.3973 104.076 32.7185 104.076 31.9492C104.076 31.1798 104.382 30.4897 104.993 29.8787C105.581 29.2904 106.26 28.9963 107.029 28.9963C107.798 28.9963 108.477 29.2904 109.066 29.8787Z" />
<path d="M145.016 34.2719C142.648 34.2719 140.552 33.7759 138.728 32.7839C136.936 31.7919 135.528 30.3999 134.504 28.6079C133.512 26.7839 133.016 24.6399 133.016 22.1759V21.5519C133.016 19.1199 133.512 16.9919 134.504 15.1679C135.528 13.3439 136.936 11.9359 138.728 10.9439C140.552 9.95193 142.648 9.45593 145.016 9.45593C147.384 9.45593 149.464 9.95193 151.256 10.9439C153.08 11.9359 154.488 13.3439 155.48 15.1679C156.504 16.9919 157.016 19.1199 157.016 21.5519V22.1759C157.016 24.6399 156.504 26.7839 155.48 28.6079C154.488 30.3999 153.08 31.7919 151.256 32.7839C149.464 33.7759 147.384 34.2719 145.016 34.2719ZM145.016 30.8639C147.512 30.8639 149.496 30.0799 150.968 28.5119C152.472 26.9119 153.224 24.7679 153.224 22.0799V21.6479C153.224 18.9599 152.472 16.8319 150.968 15.2639C149.496 13.6639 147.512 12.8639 145.016 12.8639C142.552 12.8639 140.568 13.6639 139.064 15.2639C137.56 16.8319 136.808 18.9599 136.808 21.6479V22.0799C136.808 24.7679 137.56 26.9119 139.064 28.5119C140.568 30.0799 142.552 30.8639 145.016 30.8639Z" />
</svg>
